inDegrees=no
num_controls=7
num_derivatives=13
num_iterations=113
num_multipliers=7
num_parameters=0
num_slacks=7
num_states=26
objective=0.431113
objective_accelerations=0.050436
objective_balance=0.006831
objective_effort=0.031257
objective_height=0.341436
objective_ligament=0.001153
solver_duration=1848.694159
status=Solve_Succeeded
success=true
DataType=double
version=3
OpenSimVersion=4.5
endheader
time	/jointset/ground_pelvis/pelvis_tilt/value	/jointset/ground_pelvis/pelvis_tx/value	/jointset/ground_pelvis/pelvis_ty/value	/jointset/hip_l/hip_flexion_l/value	/jointset/hip_l/hip_adduction_l/value	/jointset/hip_l/hip_rotation_l/value	/jointset/back/lumbar_extension/value	/jointset/patellofemoral_l/patellar_flexion_l/value	/jointset/knee_l/knee_flexion_l/value	/jointset/knee_l/knee_adduction_l/value	/jointset/knee_l/knee_rotation_l/value	/jointset/ankle_l/ankle_angle_l/value	/jointset/subtalar_l/subtalar_angle_l/value	/jointset/ground_pelvis/pelvis_tilt/speed	/jointset/ground_pelvis/pelvis_tx/speed	/jointset/ground_pelvis/pelvis_ty/speed	/jointset/hip_l/hip_flexion_l/speed	/jointset/hip_l/hip_adduction_l/speed	/jointset/hip_l/hip_rotation_l/speed	/jointset/back/lumbar_extension/speed	/jointset/patellofemoral_l/patellar_flexion_l/speed	/jointset/knee_l/knee_flexion_l/speed	/jointset/knee_l/knee_adduction_l/speed	/jointset/knee_l/knee_rotation_l/speed	/jointset/ankle_l/ankle_angle_l/speed	/jointset/subtalar_l/subtalar_angle_l/speed	/forceset/tau_hip_flexion_l	/forceset/tau_hip_adduction_l	/forceset/tau_hip_rotation_l	/forceset/tau_knee_flexion_l	/forceset/tau_ankle_angle_l	/forceset/tau_subtalar_angle_l	/forceset/tau_lumbar_extension	lambda_cid13_p0	lambda_cid13_p1	lambda_cid13_p2	lambda_cid13_p3	lambda_cid13_p4	lambda_cid13_p5	lambda_cid14_p0	/jointset/ground_pelvis/pelvis_tilt/accel	/jointset/ground_pelvis/pelvis_tx/accel	/jointset/ground_pelvis/pelvis_ty/accel	/jointset/hip_l/hip_flexion_l/accel	/jointset/hip_l/hip_adduction_l/accel	/jointset/hip_l/hip_rotation_l/accel	/jointset/back/lumbar_extension/accel	/jointset/patellofemoral_l/patellar_flexion_l/accel	/jointset/knee_l/knee_flexion_l/accel	/jointset/knee_l/knee_adduction_l/accel	/jointset/knee_l/knee_rotation_l/accel	/jointset/ankle_l/ankle_angle_l/accel	/jointset/subtalar_l/subtalar_angle_l/accel	gamma_cid13_p0	gamma_cid13_p1	gamma_cid13_p2	gamma_cid13_p3	gamma_cid13_p4	gamma_cid13_p5	gamma_cid14_p0
0	-0.1564856537778265	0.057204195305398	0.8978768777125244	0.3774924667018715	-0.2608762365973099	-0.2429394799625562	-0.01265067647494873	0.03223648243721466	0.03223648243721463	-0.1745328738813085	0.1458739068244784	-0.04231377076293093	-0.01135137736445087	0	0	0	0	0	0	0	0	0	0	0	0	0	0.1498292381206974	-0.07173624136278745	-0.04982854771430704	-0.3297564948923787	0.3685270260123678	-0.05682227003067484	-0.08885367957116483	76.45598133272445	6.840634436380628	3.590411461482898	-30.28913638289832	-590.0437005281094	-62.42541163481613	-38.20840046375091	-2.836298352619305	-1.371032031487563	-0.9690909928410603	10.95149580460624	-1.345321371655336	3.44525000081087	-5.55679970538506	10.82867082319516	10.82867082319508	0.0372171202890442	0.3411331346151833	2.952670504150929	-0.6892872275090267	-5.40193048201445e-08	9.376528430493118e-08	1.238532209568324e-07	2.182764872483386e-08	1.861069884744176e-08	-7.966806364756872e-08	-1.78398386615981e-08
0.01	-0.156620755422368	0.05713560737863674	0.8978295597869328	0.3780259136522636	-0.2609430813438993	-0.2427682362282433	-0.01292854903199783	0.03276568716154308	0.03276568716154272	-0.1745328778791751	0.1458878641409021	-0.04217138509742963	-0.01138662226431047	-0.02679753741748236	-0.01375368742224996	-0.009434052106674974	0.1062263680136716	-0.0132934286624535	0.03405994806730594	-0.05512279274229005	0.1053618117694168	0.105361811769419	4.889484600197877e-06	0.002806528657930896	0.02822335474274773	-0.007033920306999913	0.1383301248282874	-0.081361599813097	-0.04694693140107528	-0.3116252510098722	0.3384303645820305	-0.03733247170400337	-0.0804631171219726	67.44954802693063	0.157363887312444	4.422673336310579	-24.03105615683084	-590.8703956241512	-74.86764132972749	-38.22395507495236	-2.568071403014151	-1.382948042602273	-0.9261286456901605	10.38874534075539	-1.310061563616887	3.358032860093954	-5.422261258509048	10.31806995734914	10.31806995734953	-0.01698771668607828	0.2526601251025818	2.719096937594497	-0.7082139178288683	-7.580538192340374e-08	1.007311561778076e-07	1.578503693279403e-07	4.060379502329791e-08	-1.168939278046387e-07	-6.006577243045114e-08	-2.538873402182174e-08
0.02	-0.1570171504344244	0.05692840038865124	0.8976887880750525	0.3796077318909934	-0.2611406019671286	-0.2422620598831765	-0.01374409795644142	0.03433413672427207	0.034334136724272	-0.1745326554980356	0.1459303362226497	-0.04175438008884926	-0.01149176026434672	-0.05225867350302301	-0.02772381264485121	-0.01869075725772575	0.2096742576676528	-0.02613517532796813	0.06698652215075167	-0.1075352734789016	0.2078489676802015	0.2078489676802065	4.52757999369291e-05	0.005702953064683462	0.05492386861580737	-0.0139786200353357	0.1268310115358716	-0.09098695826340686	-0.04406531508784168	-0.2934940071273675	0.3083337031516932	-0.01784267337733222	-0.07207255467278471	58.53044664541961	-6.543684419467424	5.260615436462412	-17.99882347434088	-590.4157672709058	-87.19681850604118	-38.27004411607458	-2.569018086230952	-1.414319591557835	-0.9336216017162202	10.39580013266816	-1.254984972267548	3.218575204038826	-5.014737304249352	10.25373965146876	10.25373965146876	0.04431648643637871	0.3591122843795166	2.648102330213298	-0.6714431117761905	-9.7591459026663e-08	1.076970280506841e-07	1.918475176990482e-07	5.937994132176197e-08	-2.523985544567192e-07	-4.046348121333357e-08	-3.293762938204539e-08
0.03	-0.1576625963406487	0.05658157098942821	0.8974561146458654	0.3822103940926637	-0.2614640304942444	-0.2414316663267853	-0.01507126334761108	0.03691367790345092	0.03691367790345078	-0.1745315850135389	0.1460018896436128	-0.04107622475423253	-0.01166530372333481	-0.07668973900702686	-0.04156018646820278	-0.02783078589950711	0.3103646084957643	-0.03845938642105984	0.09896579588435823	-0.1575807377424092	0.3076060781591411	0.3076060781591462	0.0001792901257712908	0.008578542054179975	0.08061659971186359	-0.02066710458255672	0.1219218191976816	-0.08485759829589228	-0.04334777580559218	-0.2889741129794917	0.3034115065134469	-0.02092070309199642	-0.06804276009246241	56.83402035158921	-5.063972374192277	5.200735508286384	-17.28083255772068	-590.5327423424009	-83.44845335154292	-38.34511737349897	-2.35904327022492	-1.356002216172212	-0.9022731205885356	9.831603369498753	-1.207497027037606	3.168617062787527	-4.951890935496304	9.768724864666108	9.76872486466613	-0.0004478049840407486	0.2473780449861508	2.516262190377488	-0.6581439423708018	-1.254630130610271e-07	1.293550607182164e-07	2.328957101038299e-07	8.387926877166328e-08	-3.701004172045316e-07	-3.907489942437328e-08	-4.012192732312391e-08
0.04	-0.1585481313994606	0.05609883666428194	0.8971324250052247	0.3858051499649384	-0.2619079727021328	-0.2402852773121049	-0.01688937137103461	0.04047719581113131	0.04047719581113137	-0.1745288527279152	0.1461013181222211	-0.04014386137044008	-0.01190385059103025	-0.1002765040206246	-0.05490479782949929	-0.03689399954845837	0.4080929917885185	-0.05023791148245696	0.1301856138086029	-0.2057237999297091	0.4046443133804624	0.4046443133804685	0.0003776360259648638	0.01127796459373394	0.1057654784509478	-0.02697930177680785	0.1170126268594937	-0.07872823832837771	-0.04263023652334205	-0.2844542188316134	0.2984893098752018	-0.02399873280666036	-0.06401296551213946	55.21899207846435	-3.59692615922186	5.141066834733244	-16.77395404830925	-589.4734548661173	-79.58707143407649	-38.44724398442522	-2.400157988149715	-1.315967099146834	-0.9182586031502004	9.803406625596683	-1.145847765928636	3.06668404216644	-4.634256889007811	9.709964599945069	9.709964599945291	0.05718280130821369	0.3238789943910086	2.539331858818883	-0.5961856411822172	-1.534600408465481e-07	1.51316024536154e-07	2.740892848598214e-07	1.084965999566458e-07	-4.874352126553488e-07	-3.806185803599355e-08	-4.729870779164273e-08
0.05	-0.1596655572543905	0.0554850510242792	0.8967182673778147	0.3903630101770372	-0.262466753691964	-0.2388308512525404	-0.01917847282707281	0.04499786822924769	0.04499786822924802	-0.1745236807501718	0.1462273274733512	-0.03896269789535324	-0.01220345326436714	-0.1230538120583967	-0.0677743334640202	-0.04593904203664558	0.5029736359867181	-0.06140769590219431	0.1605417856283283	-0.2517258740380101	0.4990215404714629	0.4990215404714609	0.0006698417138250091	0.01391911025844252	0.1303615425373467	-0.0328658474091479	0.110443291390645	-0.07620897379949099	-0.0415330888059257	-0.2781487575733078	0.2895350317805615	-0.02206404883814547	-0.05878174211116848	52.47341273033079	-4.015740469814876	5.275584555283286	-15.46713161414413	-588.7803527584578	-79.39861919481341	-38.57400111016623	-2.193297330949772	-1.260725391336103	-0.8979529223238567	9.254562675305227	-1.085991273311924	2.996371970811517	-4.527590085732736	9.231316815713454	9.231316815712047	0.0172535526559449	0.2334748567674749	2.403882144525687	-0.5736347770967651	-1.69812124121568e-07	1.55421359808789e-07	2.980869574109741e-07	1.25206847973518e-07	-5.696289838749474e-07	-3.703412731206661e-08	-5.150475375432348e-08
0.06	-0.1610061122135698	0.05474491430878493	0.8962135941553887	0.3958545107027913	-0.2631339220246556	-0.2370776058309909	-0.0219164765069926	0.05044825592868108	0.05044825592868126	-0.1745151838955209	0.1463795967819794	-0.03753874608720734	-0.01255967054459481	-0.1449023248705207	-0.08017501292780313	-0.0549971185516646	0.5948210545198626	-0.07191538005455728	0.1899494862054908	-0.2955042447059694	0.5905873696438991	0.5905873696438861	0.001042611406925854	0.01652995609341896	0.154323145062757	-0.03830222315496291	0.1038739559217834	-0.07368970927060506	-0.04043594108851341	-0.2718432963150065	0.28058075368592	-0.02012936486963159	-0.05355051871020712	49.79985104545882	-4.446121769827935	5.410758133635613	-14.35368552841813	-587.0410014264485	-79.11010213910966	-38.72281222792724	-2.214398943020083	-1.22219586499925	-0.9208654085165634	9.196761492585678	-1.013427712453763	2.87698979365387	-4.189516200939485	9.14768501623219	9.147685016231838	0.07329560235634559	0.3178190284445827	2.412439546621145	-0.5061516638772174	-1.856738939435141e-07	1.587748791426744e-07	3.213605919745547e-07	1.415841661727856e-07	-6.503431330216523e-07	-3.600577808980086e-08	-5.558571615886366e-08
0.07000000000000001	-0.1625609381806484	0.05388305900521712	0.8956180606938045	0.4022503272364761	-0.263902750070416	-0.2350348922294881	-0.02508119996986649	0.05680092487295416	0.05680092487295462	-0.1745024429458427	0.146557920522431	-0.03587816413192717	-0.01296788317226084	-0.1659068248700014	-0.09212031772988297	-0.06412450571541839	0.6838467808289096	-0.08173140217453419	0.2184548076150163	-0.337119177612609	0.6794775881709177	0.6794775881709008	0.00151510974879875	0.01911093965999162	0.1776818116274273	-0.04326080059647503	0.09738785326111979	-0.07032221303903084	-0.03941920762073203	-0.2664275780543127	0.2725916194565222	-0.01910861845714509	-0.04841091089526819	47.37184687736864	-4.535142246258873	5.505861446584594	-13.25125932096493	-585.6696074301975	-78.1104454269083	-38.89066332999814	-2.02007633319448	-1.169309764117688	-0.911046209821839	8.681136727675685	-0.9479013989993933	2.816491557428773	-4.099291297082059	8.689376781563931	8.689376781563485	0.03571249317625092	0.224613434784937	2.280852440145879	-0.478845070264661	-1.946931288262602e-07	1.550202419929413e-07	3.389217643889578e-07	1.516760617022965e-07	-6.974999897942492e-07	-3.863769982796722e-08	-5.834734947520819e-08
0.08	-0.1643211293086789	0.05290402825836742	0.8949307791926793	0.4095215327387738	-0.2647661807248221	-0.2327112877653248	-0.02865243465411785	0.06402843330462372	0.06402843330462363	-0.1744846799041297	0.1467613291813511	-0.03398734106524913	-0.01342330843153729	-0.1859753570607776	-0.1036101015841811	-0.07334672645984977	0.7698988482424158	-0.09083590178370067	0.2461276587376168	-0.3768064889814823	0.7655552671230255	0.765555267123003	0.002047029813610804	0.02154693978741762	0.2003713673423332	-0.04774474947704559	0.09090175060046185	-0.06695471680745742	-0.03840247415295673	-0.2610118597936162	0.2646024852271247	-0.01808787204465924	-0.04327130308032441	45.00776638319505	-4.632558143923216	5.599110234346742	-12.32362708908153	-583.3752626791148	-77.01973267765202	-39.07441360577257	-2.027205381279185	-1.131091675442922	-0.9398321246520766	8.602029713477506	-0.8711232102916775	2.710495736268851	-3.803991893386253	8.585177101249997	8.585177101249338	0.08517994694417245	0.2888223406152517	2.278617376668236	-0.4112259516889125	-2.032709098419611e-07	1.508070141023297e-07	3.561143908582526e-07	1.613624460918232e-07	-7.424918599620648e-07	-4.150576807970984e-08	-6.102386478586268e-08
0.09	-0.1662780470858795	0.05181240804703841	0.8941505983166947	0.4176396281247903	-0.2657170918993633	-0.2301152933653286	-0.03261029064032209	0.07210347688235186	0.07210347688235168	-0.174461320664866	0.1469888229765546	-0.03187266505373867	-0.01392113771818296	-0.2052789681008106	-0.1146317577758412	-0.08271651886927915	0.8532546485616154	-0.09922691048551897	0.2729273506494979	-0.4144273351003336	0.8489935225655033	0.8489935225654746	0.002621811585502516	0.02393656147000196	0.2224569969454065	-0.05174119287811738	0.08443909144100513	-0.06386313463862474	-0.03746601319347139	-0.2565155750753619	0.2575388284908235	-0.01687311214400941	-0.03811206712989895	42.91768782736145	-4.845411229273323	5.691573130073517	-11.53842230578227	-581.553267867975	-76.16414386096012	-39.27060885304856	-1.862560955761736	-1.075342726154092	-0.9397625444369062	8.132496308497975	-0.8052118747885721	2.643071425554198	-3.69052499726058	8.154173135211733	8.154173135211298	0.04323321527906158	0.2116895806615109	2.157496427827504	-0.3819282831385596	-2.05716562573701e-07	1.1808925849888e-07	3.758925974807089e-07	1.645519828447945e-07	-7.636005904376799e-07	-5.842584045364776e-08	-6.49420612099972e-08
